<svg width="128" height="128" viewBox="0 0 128 128" fill="none" xmlns="http://www.w3.org/2000/svg">
<rect width="128" height="128" rx="8" fill="black"/>
<path d="M37.6439 29.9091H54.107V77.679C54.0845 82.1546 53.0162 86.0679 50.9021 89.419C48.788 92.7476 45.8642 95.334 42.1308 97.1783C38.4198 99.0225 34.1241 99.9446 29.2437 99.9446C24.9255 99.9446 21.0009 99.1912 17.4699 97.6843C13.9614 96.1774 11.1613 93.8384 9.06969 90.6673C7.00056 87.4961 5.97724 83.4366 5.99973 78.4886H22.6315C22.699 80.2654 23.0363 81.7835 23.6436 83.043C24.2733 84.2799 25.1392 85.2133 26.2412 85.843C27.3432 86.4728 28.6589 86.7876 30.1883 86.7876C31.7851 86.7876 33.1346 86.4503 34.2366 85.7756C35.3386 85.0784 36.1708 84.055 36.733 82.7056C37.3178 81.3562 37.6214 79.6806 37.6439 77.679V29.9091Z" fill="white"/>
<path d="M62.3301 43.4709V29.9091H120.727V43.4709H99.7768V99H83.3137V43.4709H62.3301Z" fill="#DF2020"/>
</svg>
