<svg width="13" height="12" viewBox="0 0 13 12" fill="none" xmlns="http://www.w3.org/2000/svg">
<path d="M11.8379 0.635514C11.7577 0.534129 11.6624 0.453657 11.5573 0.398741C11.4523 0.343825 11.3396 0.315552 11.2258 0.315552C11.112 0.315552 10.9993 0.343825 10.8943 0.398741C10.7892 0.453657 10.6939 0.534129 10.6137 0.635514L4.19131 8.70492L1.49304 5.30842C1.40983 5.20756 1.3116 5.12826 1.20397 5.07503C1.09634 5.02181 0.981401 4.99571 0.865728 4.99822C0.750055 5.00073 0.635909 5.03181 0.529807 5.08967C0.423705 5.14753 0.327725 5.23105 0.247347 5.33546C0.166969 5.43986 0.103767 5.56311 0.0613499 5.69817C0.0189327 5.83322 -0.00186944 5.97744 0.000131826 6.12258C0.00213309 6.26772 0.0268984 6.41095 0.0730135 6.54408C0.119129 6.67721 0.18569 6.79764 0.268899 6.8985L3.57924 11.0522C3.65938 11.1536 3.75473 11.234 3.85978 11.289C3.96483 11.3439 4.07751 11.3722 4.19131 11.3722C4.30512 11.3722 4.41779 11.3439 4.52284 11.289C4.6279 11.234 4.72324 11.1536 4.80338 11.0522L11.8379 2.2256C11.9254 2.12431 11.9952 2.00137 12.043 1.86454C12.0907 1.7277 12.1154 1.57994 12.1154 1.43056C12.1154 1.28117 12.0907 1.13341 12.043 0.996575C11.9952 0.859742 11.9254 0.736806 11.8379 0.635514Z" fill="#1C9E14"/>
</svg>
