<svg width="250" height="64" viewBox="0 0 250 64" fill="none" xmlns="http://www.w3.org/2000/svg">
<path d="M49.6302 25H45.974L52.6309 6.09091H56.8596L63.5258 25H59.8696L54.8192 9.96875H54.6714L49.6302 25ZM49.7503 17.5859H59.7219V20.3374H49.7503V17.5859ZM81.5555 6.09091V25H78.5086L69.5988 12.12H69.4419V25H66.0164V6.09091H69.0818L77.9823 18.9801H78.1485V6.09091H81.5555ZM91.6956 25H85.2879V6.09091H91.8248C93.7022 6.09091 95.3149 6.46946 96.6629 7.22656C98.0171 7.97751 99.0573 9.05776 99.7836 10.4673C100.51 11.8769 100.873 13.5634 100.873 15.527C100.873 17.4967 100.507 19.1894 99.7744 20.6051C99.0481 22.0208 97.9986 23.1072 96.626 23.8643C95.2595 24.6214 93.616 25 91.6956 25ZM88.7133 22.0362H91.5294C92.8466 22.0362 93.9453 21.7962 94.8256 21.3161C95.7058 20.8298 96.3675 20.1065 96.8106 19.1463C97.2538 18.1799 97.4754 16.9735 97.4754 15.527C97.4754 14.0805 97.2538 12.8802 96.8106 11.9261C96.3675 10.9659 95.7119 10.2488 94.844 9.77486C93.9823 9.29474 92.9113 9.05469 91.6309 9.05469H88.7133V22.0362ZM104.128 25V6.09091H111.219C112.671 6.09091 113.89 6.34328 114.875 6.84801C115.866 7.35275 116.614 8.06061 117.119 8.97159C117.629 9.87642 117.885 10.9321 117.885 12.1385C117.885 13.3511 117.626 14.4036 117.109 15.2962C116.598 16.1825 115.844 16.8688 114.847 17.3551C113.85 17.8352 112.625 18.0753 111.172 18.0753H106.122V15.2315H110.711C111.56 15.2315 112.256 15.1146 112.797 14.8807C113.339 14.6406 113.739 14.2928 113.998 13.8374C114.262 13.3757 114.395 12.8094 114.395 12.1385C114.395 11.4676 114.262 10.8951 113.998 10.4212C113.733 9.94105 113.33 9.57789 112.788 9.33168C112.247 9.07931 111.548 8.95312 110.692 8.95312H107.553V25H104.128ZM113.896 16.4318L118.577 25H114.755L110.157 16.4318H113.896ZM124.463 6.09091V25H121.038V6.09091H124.463ZM128.173 25V6.09091H131.598V14.7791H131.829L139.206 6.09091H143.389L136.076 14.576L143.453 25H139.335L133.694 16.8935L131.598 19.3679V25H128.173ZM144.937 8.96236V6.09091H160.024V8.96236H154.18V25H150.782V8.96236H144.937ZM166.358 6.09091V25H162.932V6.09091H166.358ZM169.236 8.96236V6.09091H184.323V8.96236H178.478V25H175.081V8.96236H169.236ZM203.29 15.5455C203.29 17.5829 202.908 19.3279 202.145 20.7805C201.388 22.227 200.354 23.335 199.043 24.1044C197.738 24.8738 196.257 25.2585 194.601 25.2585C192.946 25.2585 191.462 24.8738 190.151 24.1044C188.846 23.3288 187.812 22.2178 187.049 20.7713C186.292 19.3187 185.913 17.5767 185.913 15.5455C185.913 13.508 186.292 11.7661 187.049 10.3196C187.812 8.86695 188.846 7.75592 190.151 6.9865C191.462 6.21709 192.946 5.83239 194.601 5.83239C196.257 5.83239 197.738 6.21709 199.043 6.9865C200.354 7.75592 201.388 8.86695 202.145 10.3196C202.908 11.7661 203.29 13.508 203.29 15.5455ZM199.846 15.5455C199.846 14.1113 199.621 12.9018 199.172 11.9169C198.729 10.9259 198.113 10.178 197.325 9.6733C196.537 9.16241 195.629 8.90696 194.601 8.90696C193.574 8.90696 192.666 9.16241 191.878 9.6733C191.09 10.178 190.471 10.9259 190.022 11.9169C189.579 12.9018 189.357 14.1113 189.357 15.5455C189.357 16.9796 189.579 18.1922 190.022 19.1832C190.471 20.1681 191.09 20.916 191.878 21.4268C192.666 21.9316 193.574 22.1839 194.601 22.1839C195.629 22.1839 196.537 21.9316 197.325 21.4268C198.113 20.916 198.729 20.1681 199.172 19.1832C199.621 18.1922 199.846 16.9796 199.846 15.5455Z" fill="#262626"/>
<path d="M12.4602 39H11.0511C10.9678 38.5947 10.822 38.2386 10.6136 37.9318C10.4091 37.625 10.1591 37.3674 9.86364 37.1591C9.57197 36.947 9.24811 36.7879 8.89205 36.6818C8.53599 36.5758 8.16477 36.5227 7.77841 36.5227C7.07386 36.5227 6.43561 36.7008 5.86364 37.0568C5.29545 37.4129 4.8428 37.9375 4.50568 38.6307C4.17235 39.3239 4.00568 40.1742 4.00568 41.1818C4.00568 42.1894 4.17235 43.0398 4.50568 43.733C4.8428 44.4261 5.29545 44.9508 5.86364 45.3068C6.43561 45.6629 7.07386 45.8409 7.77841 45.8409C8.16477 45.8409 8.53599 45.7879 8.89205 45.6818C9.24811 45.5758 9.57197 45.4186 9.86364 45.2102C10.1591 44.9981 10.4091 44.7386 10.6136 44.4318C10.822 44.1212 10.9678 43.7652 11.0511 43.3636H12.4602C12.3542 43.9583 12.161 44.4905 11.8807 44.9602C11.6004 45.4299 11.2519 45.8295 10.8352 46.1591C10.4186 46.4848 9.95076 46.733 9.43182 46.9034C8.91667 47.0739 8.36553 47.1591 7.77841 47.1591C6.78599 47.1591 5.90341 46.9167 5.13068 46.4318C4.35795 45.947 3.75 45.2576 3.30682 44.3636C2.86364 43.4697 2.64205 42.4091 2.64205 41.1818C2.64205 39.9545 2.86364 38.8939 3.30682 38C3.75 37.1061 4.35795 36.4167 5.13068 35.9318C5.90341 35.447 6.78599 35.2045 7.77841 35.2045C8.36553 35.2045 8.91667 35.2898 9.43182 35.4602C9.95076 35.6307 10.4186 35.8807 10.8352 36.2102C11.2519 36.536 11.6004 36.9337 11.8807 37.4034C12.161 37.8693 12.3542 38.4015 12.4602 39ZM24.5554 41.1818C24.5554 42.4091 24.3338 43.4697 23.8906 44.3636C23.4474 45.2576 22.8395 45.947 22.0668 46.4318C21.294 46.9167 20.4115 47.1591 19.419 47.1591C18.4266 47.1591 17.544 46.9167 16.7713 46.4318C15.9986 45.947 15.3906 45.2576 14.9474 44.3636C14.5043 43.4697 14.2827 42.4091 14.2827 41.1818C14.2827 39.9545 14.5043 38.8939 14.9474 38C15.3906 37.1061 15.9986 36.4167 16.7713 35.9318C17.544 35.447 18.4266 35.2045 19.419 35.2045C20.4115 35.2045 21.294 35.447 22.0668 35.9318C22.8395 36.4167 23.4474 37.1061 23.8906 38C24.3338 38.8939 24.5554 39.9545 24.5554 41.1818ZM23.1918 41.1818C23.1918 40.1742 23.0232 39.3239 22.6861 38.6307C22.3527 37.9375 21.9001 37.4129 21.3281 37.0568C20.7599 36.7008 20.1236 36.5227 19.419 36.5227C18.7145 36.5227 18.0762 36.7008 17.5043 37.0568C16.9361 37.4129 16.4834 37.9375 16.1463 38.6307C15.813 39.3239 15.6463 40.1742 15.6463 41.1818C15.6463 42.1894 15.813 43.0398 16.1463 43.733C16.4834 44.4261 16.9361 44.9508 17.5043 45.3068C18.0762 45.6629 18.7145 45.8409 19.419 45.8409C20.1236 45.8409 20.7599 45.6629 21.3281 45.3068C21.9001 44.9508 22.3527 44.4261 22.6861 43.733C23.0232 43.0398 23.1918 42.1894 23.1918 41.1818ZM36.152 35.3636V47H34.7884L28.4474 37.8636H28.3338V47H26.9247V35.3636H28.2884L34.652 44.5227H34.7656V35.3636H36.152ZM45.3352 38.2727C45.267 37.697 44.9905 37.25 44.5057 36.9318C44.0208 36.6136 43.4261 36.4545 42.7216 36.4545C42.2064 36.4545 41.7557 36.5379 41.3693 36.7045C40.9867 36.8712 40.6875 37.1004 40.4716 37.392C40.2595 37.6837 40.1534 38.0152 40.1534 38.3864C40.1534 38.697 40.2273 38.964 40.375 39.1875C40.5265 39.4072 40.7197 39.5909 40.9545 39.7386C41.1894 39.8826 41.4356 40.0019 41.6932 40.0966C41.9508 40.1875 42.1875 40.2614 42.4034 40.3182L43.5852 40.6364C43.8883 40.7159 44.2254 40.8258 44.5966 40.9659C44.9716 41.1061 45.3295 41.2973 45.6705 41.5398C46.0152 41.7784 46.2992 42.0852 46.5227 42.4602C46.7462 42.8352 46.858 43.2955 46.858 43.8409C46.858 44.4697 46.6932 45.0379 46.3636 45.5455C46.0379 46.053 45.5606 46.4564 44.9318 46.7557C44.3068 47.0549 43.5473 47.2045 42.6534 47.2045C41.8201 47.2045 41.0985 47.0701 40.4886 46.8011C39.8826 46.5322 39.4053 46.1572 39.0568 45.6761C38.7121 45.1951 38.517 44.6364 38.4716 44H39.9261C39.964 44.4394 40.1117 44.803 40.3693 45.0909C40.6307 45.375 40.9602 45.5871 41.358 45.7273C41.7595 45.8636 42.1913 45.9318 42.6534 45.9318C43.1913 45.9318 43.6742 45.8447 44.1023 45.6705C44.5303 45.4924 44.8693 45.2462 45.1193 44.9318C45.3693 44.6136 45.4943 44.2424 45.4943 43.8182C45.4943 43.4318 45.3864 43.1174 45.1705 42.875C44.9545 42.6326 44.6705 42.4356 44.3182 42.2841C43.9659 42.1326 43.5852 42 43.1761 41.8864L41.7443 41.4773C40.8352 41.2159 40.1155 40.8428 39.5852 40.358C39.0549 39.8731 38.7898 39.2386 38.7898 38.4545C38.7898 37.803 38.9659 37.2348 39.3182 36.75C39.6742 36.2614 40.1515 35.8826 40.75 35.6136C41.3523 35.3409 42.0246 35.2045 42.767 35.2045C43.517 35.2045 44.1837 35.339 44.767 35.608C45.3504 35.8731 45.8125 36.2367 46.1534 36.6989C46.4981 37.161 46.6799 37.6856 46.6989 38.2727H45.3352ZM56.8111 35.3636H58.2202V43.0682C58.2202 43.8636 58.0327 44.5739 57.6577 45.1989C57.2865 45.8201 56.7618 46.3106 56.0838 46.6705C55.4058 47.0265 54.6103 47.2045 53.6974 47.2045C52.7846 47.2045 51.9891 47.0265 51.3111 46.6705C50.633 46.3106 50.1065 45.8201 49.7315 45.1989C49.3603 44.5739 49.1747 43.8636 49.1747 43.0682V35.3636H50.5838V42.9545C50.5838 43.5227 50.7088 44.0284 50.9588 44.4716C51.2088 44.911 51.5649 45.2576 52.027 45.5114C52.4929 45.7614 53.0497 45.8864 53.6974 45.8864C54.3452 45.8864 54.902 45.7614 55.3679 45.5114C55.8338 45.2576 56.1899 44.911 56.4361 44.4716C56.6861 44.0284 56.8111 43.5227 56.8111 42.9545V35.3636ZM61.0341 47V35.3636H62.4432V45.75H67.8523V47H61.0341ZM67.8509 36.6136V35.3636H76.5781V36.6136H72.919V47H71.5099V36.6136H67.8509ZM88.0866 41.1818C88.0866 42.4091 87.8651 43.4697 87.4219 44.3636C86.9787 45.2576 86.3707 45.947 85.598 46.4318C84.8253 46.9167 83.9427 47.1591 82.9503 47.1591C81.9579 47.1591 81.0753 46.9167 80.3026 46.4318C79.5298 45.947 78.9219 45.2576 78.4787 44.3636C78.0355 43.4697 77.8139 42.4091 77.8139 41.1818C77.8139 39.9545 78.0355 38.8939 78.4787 38C78.9219 37.1061 79.5298 36.4167 80.3026 35.9318C81.0753 35.447 81.9579 35.2045 82.9503 35.2045C83.9427 35.2045 84.8253 35.447 85.598 35.9318C86.3707 36.4167 86.9787 37.1061 87.4219 38C87.8651 38.8939 88.0866 39.9545 88.0866 41.1818ZM86.723 41.1818C86.723 40.1742 86.5545 39.3239 86.2173 38.6307C85.884 37.9375 85.4313 37.4129 84.8594 37.0568C84.2912 36.7008 83.6548 36.5227 82.9503 36.5227C82.2457 36.5227 81.6075 36.7008 81.0355 37.0568C80.4673 37.4129 80.0147 37.9375 79.6776 38.6307C79.3442 39.3239 79.1776 40.1742 79.1776 41.1818C79.1776 42.1894 79.3442 43.0398 79.6776 43.733C80.0147 44.4261 80.4673 44.9508 81.0355 45.3068C81.6075 45.6629 82.2457 45.8409 82.9503 45.8409C83.6548 45.8409 84.2912 45.6629 84.8594 45.3068C85.4313 44.9508 85.884 44.4261 86.2173 43.733C86.5545 43.0398 86.723 42.1894 86.723 41.1818ZM90.456 47V35.3636H94.3878C95.2969 35.3636 96.0431 35.5189 96.6264 35.8295C97.2098 36.1364 97.6416 36.5587 97.9219 37.0966C98.2022 37.6345 98.3423 38.2462 98.3423 38.9318C98.3423 39.6174 98.2022 40.2254 97.9219 40.7557C97.6416 41.286 97.2116 41.7027 96.6321 42.0057C96.0526 42.3049 95.312 42.4545 94.4105 42.4545H91.2287V41.1818H94.3651C94.9863 41.1818 95.4863 41.0909 95.8651 40.9091C96.2476 40.7273 96.5241 40.4697 96.6946 40.1364C96.8688 39.7992 96.956 39.3977 96.956 38.9318C96.956 38.4659 96.8688 38.0587 96.6946 37.7102C96.5204 37.3617 96.242 37.0928 95.8594 36.9034C95.4768 36.7102 94.9711 36.6136 94.3423 36.6136H91.8651V47H90.456ZM95.9332 41.7727L98.7969 47H97.1605L94.3423 41.7727H95.9332ZM102.099 35.3636V47H100.69V35.3636H102.099ZM105.402 47H103.925L108.197 35.3636H109.652L113.925 47H112.447L108.97 37.2045H108.879L105.402 47ZM105.947 42.4545H111.902V43.7045H105.947V42.4545ZM120.237 47V35.3636H127.214V36.6136H121.646V40.5455H126.692V41.7955H121.646V47H120.237ZM131.037 35.3636V47H129.628V35.3636H131.037ZM133.226 36.6136V35.3636H141.953V36.6136H138.294V47H136.885V36.6136H133.226ZM153.355 35.3636V47H151.991L145.651 37.8636H145.537V47H144.128V35.3636H145.491L151.855 44.5227H151.969V35.3636H153.355ZM156.175 47V35.3636H163.197V36.6136H157.584V40.5455H162.834V41.7955H157.584V45.75H163.288V47H156.175ZM172.101 38.2727C172.033 37.697 171.756 37.25 171.271 36.9318C170.786 36.6136 170.192 36.4545 169.487 36.4545C168.972 36.4545 168.521 36.5379 168.135 36.7045C167.752 36.8712 167.453 37.1004 167.237 37.392C167.025 37.6837 166.919 38.0152 166.919 38.3864C166.919 38.697 166.993 38.964 167.141 39.1875C167.292 39.4072 167.485 39.5909 167.72 39.7386C167.955 39.8826 168.201 40.0019 168.459 40.0966C168.716 40.1875 168.953 40.2614 169.169 40.3182L170.351 40.6364C170.654 40.7159 170.991 40.8258 171.362 40.9659C171.737 41.1061 172.095 41.2973 172.436 41.5398C172.781 41.7784 173.065 42.0852 173.288 42.4602C173.512 42.8352 173.624 43.2955 173.624 43.8409C173.624 44.4697 173.459 45.0379 173.129 45.5455C172.804 46.053 172.326 46.4564 171.697 46.7557C171.072 47.0549 170.313 47.2045 169.419 47.2045C168.586 47.2045 167.864 47.0701 167.254 46.8011C166.648 46.5322 166.171 46.1572 165.822 45.6761C165.478 45.1951 165.283 44.6364 165.237 44H166.692C166.73 44.4394 166.877 44.803 167.135 45.0909C167.396 45.375 167.726 45.5871 168.124 45.7273C168.525 45.8636 168.957 45.9318 169.419 45.9318C169.957 45.9318 170.44 45.8447 170.868 45.6705C171.296 45.4924 171.635 45.2462 171.885 44.9318C172.135 44.6136 172.26 44.2424 172.26 43.8182C172.26 43.4318 172.152 43.1174 171.936 42.875C171.72 42.6326 171.436 42.4356 171.084 42.2841C170.732 42.1326 170.351 42 169.942 41.8864L168.51 41.4773C167.601 41.2159 166.881 40.8428 166.351 40.358C165.821 39.8731 165.555 39.2386 165.555 38.4545C165.555 37.803 165.732 37.2348 166.084 36.75C166.44 36.2614 166.917 35.8826 167.516 35.6136C168.118 35.3409 168.79 35.2045 169.533 35.2045C170.283 35.2045 170.949 35.339 171.533 35.608C172.116 35.8731 172.578 36.2367 172.919 36.6989C173.264 37.161 173.446 37.6856 173.464 38.2727H172.101ZM182.304 38.2727C182.236 37.697 181.959 37.25 181.474 36.9318C180.99 36.6136 180.395 36.4545 179.69 36.4545C179.175 36.4545 178.724 36.5379 178.338 36.7045C177.955 36.8712 177.656 37.1004 177.44 37.392C177.228 37.6837 177.122 38.0152 177.122 38.3864C177.122 38.697 177.196 38.964 177.344 39.1875C177.495 39.4072 177.688 39.5909 177.923 39.7386C178.158 39.8826 178.404 40.0019 178.662 40.0966C178.92 40.1875 179.156 40.2614 179.372 40.3182L180.554 40.6364C180.857 40.7159 181.194 40.8258 181.565 40.9659C181.94 41.1061 182.298 41.2973 182.639 41.5398C182.984 41.7784 183.268 42.0852 183.491 42.4602C183.715 42.8352 183.827 43.2955 183.827 43.8409C183.827 44.4697 183.662 45.0379 183.332 45.5455C183.007 46.053 182.529 46.4564 181.901 46.7557C181.276 47.0549 180.516 47.2045 179.622 47.2045C178.789 47.2045 178.067 47.0701 177.457 46.8011C176.851 46.5322 176.374 46.1572 176.026 45.6761C175.681 45.1951 175.486 44.6364 175.44 44H176.895C176.933 44.4394 177.08 44.803 177.338 45.0909C177.599 45.375 177.929 45.5871 178.327 45.7273C178.728 45.8636 179.16 45.9318 179.622 45.9318C180.16 45.9318 180.643 45.8447 181.071 45.6705C181.499 45.4924 181.838 45.2462 182.088 44.9318C182.338 44.6136 182.463 44.2424 182.463 43.8182C182.463 43.4318 182.355 43.1174 182.139 42.875C181.923 42.6326 181.639 42.4356 181.287 42.2841C180.935 42.1326 180.554 42 180.145 41.8864L178.713 41.4773C177.804 41.2159 177.084 40.8428 176.554 40.358C176.024 39.8731 175.759 39.2386 175.759 38.4545C175.759 37.803 175.935 37.2348 176.287 36.75C176.643 36.2614 177.12 35.8826 177.719 35.6136C178.321 35.3409 178.993 35.2045 179.736 35.2045C180.486 35.2045 181.152 35.339 181.736 35.608C182.319 35.8731 182.781 36.2367 183.122 36.6989C183.467 37.161 183.649 37.6856 183.668 38.2727H182.304ZM200.462 41.1818C200.462 42.4091 200.24 43.4697 199.797 44.3636C199.354 45.2576 198.746 45.947 197.973 46.4318C197.2 46.9167 196.318 47.1591 195.325 47.1591C194.333 47.1591 193.45 46.9167 192.678 46.4318C191.905 45.947 191.297 45.2576 190.854 44.3636C190.411 43.4697 190.189 42.4091 190.189 41.1818C190.189 39.9545 190.411 38.8939 190.854 38C191.297 37.1061 191.905 36.4167 192.678 35.9318C193.45 35.447 194.333 35.2045 195.325 35.2045C196.318 35.2045 197.2 35.447 197.973 35.9318C198.746 36.4167 199.354 37.1061 199.797 38C200.24 38.8939 200.462 39.9545 200.462 41.1818ZM199.098 41.1818C199.098 40.1742 198.929 39.3239 198.592 38.6307C198.259 37.9375 197.806 37.4129 197.234 37.0568C196.666 36.7008 196.03 36.5227 195.325 36.5227C194.621 36.5227 193.982 36.7008 193.411 37.0568C192.842 37.4129 192.39 37.9375 192.053 38.6307C191.719 39.3239 191.553 40.1742 191.553 41.1818C191.553 42.1894 191.719 43.0398 192.053 43.733C192.39 44.4261 192.842 44.9508 193.411 45.3068C193.982 45.6629 194.621 45.8409 195.325 45.8409C196.03 45.8409 196.666 45.6629 197.234 45.3068C197.806 44.9508 198.259 44.4261 198.592 43.733C198.929 43.0398 199.098 42.1894 199.098 41.1818ZM212.058 35.3636V47H210.695L204.354 37.8636H204.24V47H202.831V35.3636H204.195L210.558 44.5227H210.672V35.3636H212.058ZM214.878 47V35.3636H216.287V45.75H221.696V47H214.878ZM225.287 35.3636V47H223.878V35.3636H225.287ZM237.339 35.3636V47H235.976L229.635 37.8636H229.521V47H228.112V35.3636H229.476L235.839 44.5227H235.953V35.3636H237.339ZM240.159 47V35.3636H247.182V36.6136H241.568V40.5455H246.818V41.7955H241.568V45.75H247.273V47H240.159Z" fill="#262626"/>
<path d="M0 30L250 30" stroke="#262626" stroke-width="4"/>
</svg>
