<svg width="50" height="36" viewBox="0 0 50 36" fill="none" xmlns="http://www.w3.org/2000/svg">
<path d="M49.9885 12.8824C50.1008 9.63136 49.3898 6.40468 47.9216 3.50193C46.9254 2.31086 45.5429 1.50708 44.015 1.23064C37.6952 0.657193 31.3492 0.422157 25.0043 0.526536C18.6824 0.417419 12.3593 0.644871 6.06167 1.20792C4.81659 1.43441 3.66436 2.01842 2.74558 2.88868C0.701412 4.77386 0.474282 7.99909 0.247153 10.7246C-0.0823843 15.6251 -0.0823843 20.5422 0.247153 25.4426C0.312862 26.9767 0.541271 28.4994 0.928541 29.9852C1.2024 31.1324 1.75648 32.1937 2.54116 33.0742C3.46618 33.9905 4.64525 34.6078 5.92539 34.8458C10.8221 35.4502 15.756 35.7007 20.6888 35.5953C28.6383 35.7089 35.6112 35.5953 43.856 34.9593C45.1676 34.736 46.3798 34.1179 47.3311 33.1877C47.9669 32.5516 48.4419 31.7729 48.7166 30.9164C49.5288 28.424 49.9278 25.8154 49.8976 23.194C49.9885 21.9221 49.9885 14.2452 49.9885 12.8824ZM19.8711 24.5568V10.4975L33.3172 17.5612C29.5468 19.6508 24.5727 22.013 19.8711 24.5568Z" fill="#141414"/>
</svg>
